{"title":"Frankie Go Boom 2012 DVDRip XViD juggs","uid":8609001,"size":740109389,"categoryP":"video","categoryS":"movies","magnet":"?xt=urn:btih:5134dbe62e83cd0afe43449fd12a91a7c7ff2cb9&amp;dn=Frankie+Go+Boom+2012+DVDRip+XViD+juggs&amp;tr=udp%3A%2F%2Ftracker.openbittorrent.com%3A80&amp;tr=udp%3A%2F%2Fopen.demonii.com%3A1337&amp;tr=udp%3A%2F%2Ftracker.coppersurfer.tk%3A6969&amp;tr=udp%3A%2F%2Fexodus.desync.com%3A6969","seeders":6,"leechers":3,"uploader":"juggs99","files":3,"time":1372089314,"description":"Source : 0MNiDVD(Thanks)\n &lt;a href=&quot;\nhttp://www.imdb.com/title/tt1772271/&quot; rel=&quot;nofollow&quot; target=&quot;_NEW&quot;&gt;\nhttp://www.imdb.com/title/tt1772271/&lt;/a&gt;\n\n\nFormat                                   : AVI\nFormat/Info                              : Audio Video Interleave\nFile size                                : 697 MiB\nDuration                                 : 1h 29mn\nOverall bit rate                         : 1 094 Kbps\nWriting library                          : VirtualDub build 32842/release\n\nVideo\nID                                       : 0\nFormat                                   : MPEG-4 Visual\nFormat profile                           : Advanced Simple@L5\nFormat settings, BVOP                    : 2\nFormat settings, QPel                    : No\nFormat settings, GMC                     : No warppoints\nFormat settings, Matrix                  : Default (H.263)\nMuxing mode                              : Packed bitstream\nCodec ID                                 : XVID\nCodec ID/Hint                            : XviD\nDuration                                 : 1h 29mn\nBit rate                                 : 957 Kbps\nWidth                                    : 640 pixels\nHeight                                   : 272 pixels\nDisplay aspect ratio                     : 2.35:1\nFrame rate                               : 23.976 fps\nColor space                              : YUV\nChroma subsampling                       : 4:2:0\nBit depth                                : 8 bits\nScan type                                : Progressive\nCompression mode                         : Lossy\nBits/(Pixel*Frame)                       : 0.229\nStream size                              : 609 MiB (87%)\nWriting library                          : XviD 1.2.1 (UTC 2008-12-04)\n\nAudio\nID                                       : 1\nFormat                                   : MPEG Audio\nFormat version                           : Version 1\nFormat profile                           : Layer 3\nCodec ID                                 : 55\nCodec ID/Hint                            : MP3\nDuration                                 : 1h 29mn\nBit rate mode                            : Constant\nBit rate                                 : 128 Kbps\nChannel(s)                               : 2 channels\nSampling rate                            : 44.1 KHz\nCompression mode                         : Lossy\nStream size                              : 81.5 MiB (12%)\nAlignment                                : Split accross interleaves\nInterleave, duration                     : 42 ms (1.00 video frame)\nInterleave, preload duration             : 500 ms\nWriting library                          : LAME3.99r\nEncoding settings                        : -m s -V 4 -q 3 -lowpass 17 -b 128\n\nPlot\nFrank Bartlett has been tortured, embarrassed, and humiliated by his brother Bruce -- usually on film -- his entire life. Now that Bruce is finally off drugs and has turned his life around, things should be different. They are not.\n &lt;a href=&quot;\nhttp://img849.imageshack.us/img849/8435/t0p.png&quot; rel=&quot;nofollow&quot; target=&quot;_NEW&quot;&gt;\nhttp://img849.imageshack.us/img849/8435/t0p.png&lt;/a&gt; &lt;a href=&quot;\nhttp://img6.imageshack.us/img6/6243/7tq.png&quot; rel=&quot;nofollow&quot; target=&quot;_NEW&quot;&gt;\nhttp://img6.imageshack.us/img6/6243/7tq.png&lt;/a&gt; &lt;a href=&quot;\nhttp://img600.imageshack.us/img600/1034/i3pu.png&quot; rel=&quot;nofollow&quot; target=&quot;_NEW&quot;&gt;\nhttp://img600.imageshack.us/img600/1034/i3pu.png&lt;/a&gt;","torrent":{"xt":"urn:btih:5134dbe62e83cd0afe43449fd12a91a7c7ff2cb9","amp;dn":"Frankie+Go+Boom+2012+DVDRip+XViD+juggs","amp;tr":["udp%3A%2F%2Ftracker.openbittorrent.com%3A80","udp%3A%2F%2Fopen.demonii.com%3A1337","udp%3A%2F%2Ftracker.coppersurfer.tk%3A6969","udp%3A%2F%2Fexodus.desync.com%3A6969"],"infoHash":"5134dbe62e83cd0afe43449fd12a91a7c7ff2cb9","infoHashBuffer":{"type":"Buffer","data":[81,52,219,230,46,131,205,10,254,67,68,159,209,42,145,167,199,255,44,185]},"announce":[],"urlList":[]}}